<svg id="Layer_1" data-name="Layer 1" xmlns="http://www.w3.org/2000/svg" viewBox="0 0 24 24"><defs><style>.cls-1{fill:#575e94;}</style></defs><title>Artboard 2</title><path id="Path_1306" data-name="Path 1306" class="cls-1" d="M6.34,24l-.47-.13a2.92,2.92,0,0,1-2-2.69V7.43a.33.33,0,0,0-.26-.38A2.14,2.14,0,0,1,2.28,4.82,2.11,2.11,0,0,1,4.18,3c1,0,1.92,0,2.88,0h.21c0-.31,0-.61,0-.91A2.2,2.2,0,0,1,9.5,0c1.67,0,3.35,0,5,0a2.2,2.2,0,0,1,2.2,2.2v.7h2.76A2.14,2.14,0,0,1,20.42,7a.36.36,0,0,0-.27.4q0,6.69,0,13.4a3.12,3.12,0,0,1-.95,2.4,2.68,2.68,0,0,1-1.4.71l-.13,0ZM5,7.21V20.86a2.92,2.92,0,0,0,0,.51,1.72,1.72,0,0,0,1.69,1.5H17.3a1.61,1.61,0,0,0,1.37-.72A2.19,2.19,0,0,0,19,20.84V7.46a2.18,2.18,0,0,0,0-.25Zm7-1.13h7.35l.35,0A1,1,0,0,0,20.6,5a1,1,0,0,0-1.18-.94H4.6a2,2,0,0,0-.35,0,1,1,0,0,0-.11,2,1.63,1.63,0,0,0,.49,0Zm3.57-3.17a5.89,5.89,0,0,0,0-.84,1,1,0,0,0-.78-.89,1.33,1.33,0,0,0-.34-.05H9.56A1,1,0,0,0,8.45,2a5.53,5.53,0,0,0,0,.91Z"/><path id="Path_1307" data-name="Path 1307" class="cls-1" d="M9.25,14.55v5.18a1,1,0,0,1-.11.46.48.48,0,0,1-.52.24A.51.51,0,0,1,8.17,20a.9.9,0,0,1,0-.28V9.39A.91.91,0,0,1,8.21,9,.55.55,0,0,1,9,8.77a.59.59,0,0,1,.27.33,1.34,1.34,0,0,1,0,.35Z"/><path id="Path_1308" data-name="Path 1308" class="cls-1" d="M11.44,14.56V9.39c0-.41.18-.64.5-.67a.53.53,0,0,1,.6.44,1.24,1.24,0,0,1,0,.27V19.71a1.53,1.53,0,0,1,0,.3.55.55,0,0,1-1.07,0,1.63,1.63,0,0,1,0-.31Z"/><path id="Path_1309" data-name="Path 1309" class="cls-1" d="M14.76,14.58V9.46c0-.48.19-.74.55-.75s.58.27.58.75V19.69c0,.49-.22.76-.58.75s-.55-.26-.55-.75Z"/></svg>