<svg id="Layer_1" data-name="Layer 1" xmlns="http://www.w3.org/2000/svg" viewBox="0 0 24 24"><defs><style>.cls-1{fill:#575e94;}</style></defs><title>Artboard 3</title><g id="Group_403" data-name="Group 403"><path id="Path_1401" data-name="Path 1401" class="cls-1" d="M0,4.9C0,4.86,0,4.79,0,4.73A3,3,0,0,1,3,2.34c1.73,0,3.48,0,5.22,0a.61.61,0,0,1,.67.55v0a.63.63,0,0,1-.65.6H3.06A1.8,1.8,0,0,0,1.22,4.91a1.91,1.91,0,0,0-.06.58V20.8a1.81,1.81,0,0,0,1.35,1.9,2.32,2.32,0,0,0,.59.07H19.66a1.81,1.81,0,0,0,1.86-1.35,1.85,1.85,0,0,0,.07-.62V15.72a.63.63,0,0,1,.48-.67.61.61,0,0,1,.71.47,1,1,0,0,1,0,.17v3.53c0,.62,0,1.25,0,1.88A3,3,0,0,1,20.07,24c-.05,0-.1,0-.12.05h-.09c-.06-.09-.15-.05-.21-.05H3.08c-.07,0-.15,0-.21.05H2.68c-.05-.09-.15-.06-.23-.07A3,3,0,0,1,.21,22.18,7.76,7.76,0,0,1,0,21.36Z"/><path id="Path_1402" data-name="Path 1402" class="cls-1" d="M2.87,24c.06-.09.15-.05.22-.05H19.65c.07,0,.15-.05.21.05Z"/><path id="Path_1403" data-name="Path 1403" class="cls-1" d="M20.65,0a2.59,2.59,0,0,1,1.59.54A6.54,6.54,0,0,1,23.5,1.8a2.66,2.66,0,0,1-.14,3.4l-.24.25L12.71,15.87a1.34,1.34,0,0,1-.62.36L7.37,17.54l-.14,0a.6.6,0,0,1-.75-.38.62.62,0,0,1,0-.38c.33-1.23.68-2.48,1-3.7.12-.42.24-.83.35-1.25a.94.94,0,0,1,.25-.43L18.69.83A2.72,2.72,0,0,1,20.65,0Zm.26,6-.13-.15c-.85-.84-1.69-1.68-2.53-2.53-.12-.12-.18-.14-.31,0L9.49,11.73c-.13.12-.12.18,0,.3L12,14.53c.14.14.21.16.36,0Q15.61,11.24,18.9,8l1.88-1.88ZM22.83,3.4a1.37,1.37,0,0,0-.32-.93,8.69,8.69,0,0,0-.91-.91,1.46,1.46,0,0,0-1.73-.14,5.45,5.45,0,0,0-.87.79c-.07.07,0,.11,0,.15L21.67,5c.07.07.12.09.19,0s.43-.43.63-.66a1.35,1.35,0,0,0,.34-.94ZM8.76,13.07l-.85,3.07L11,15.29Z"/></g></svg>